<?xml version="1.0" standalone="no"?>
<!DOCTYPE svg PUBLIC "-//W3C//DTD SVG 20010904//EN"
 "http://www.w3.org/TR/2001/REC-SVG-20010904/DTD/svg10.dtd">
<svg version="1.0" xmlns="http://www.w3.org/2000/svg"
 width="800.000000pt" height="800.000000pt" viewBox="0 0 800.000000 800.000000"
 preserveAspectRatio="xMidYMid meet">
<metadata>
Created by potrace 1.14, written by Peter Selinger 2001-2017
</metadata>
<g transform="translate(0.000000,800.000000) scale(0.100000,-0.100000)"
fill="#000000" stroke="none">
<path d="M1356 6862 c-3 -5 -19 -8 -36 -7 -16 1 -30 -2 -30 -7 0 -5 -4 -6 -10
-3 -5 3 -10 1 -10 -5 0 -6 -4 -9 -9 -6 -13 9 -72 -5 -65 -15 3 -5 -2 -6 -11
-3 -9 4 -25 -2 -36 -12 -12 -11 -24 -19 -28 -18 -3 0 -22 -9 -41 -20 -19 -12
-37 -21 -40 -22 -21 -3 -90 -38 -90 -46 0 -5 -5 -6 -10 -3 -6 4 -30 -14 -55
-38 -24 -25 -46 -42 -49 -39 -3 2 -13 -9 -23 -27 -10 -17 -24 -31 -31 -31 -6
0 -11 -3 -10 -7 3 -15 -14 -63 -23 -63 -5 0 -8 -3 -7 -7 3 -14 -15 -68 -26
-78 -6 -6 -19 -14 -29 -18 -11 -4 -15 -12 -11 -18 4 -7 3 -9 -3 -6 -5 4 -24
-9 -41 -28 -16 -19 -26 -35 -20 -35 5 0 3 -7 -4 -15 -33 -37 -38 -45 -28 -45
6 0 2 -10 -9 -22 -11 -11 -18 -25 -15 -30 3 -4 0 -8 -5 -8 -6 0 -10 -3 -10 -7
3 -20 -2 -34 -11 -28 -9 5 -15 -15 -11 -37 0 -5 -3 -8 -8 -8 -5 0 -17 -20 -28
-45 -10 -25 -22 -45 -26 -45 -5 0 -6 -4 -2 -9 3 -5 1 -12 -5 -16 -8 -5 -28
-62 -36 -104 -1 -8 -8 -17 -14 -21 -7 -4 -12 -11 -11 -16 1 -20 -12 -54 -20
-54 -5 0 -9 -7 -9 -16 0 -9 -5 -12 -12 -8 -7 5 -9 2 -5 -9 3 -8 -3 -34 -14
-56 -10 -22 -19 -45 -19 -51 0 -5 -4 -10 -9 -10 -6 0 -8 -9 -6 -19 2 -11 -3
-22 -11 -25 -7 -3 -11 -12 -8 -21 3 -8 1 -15 -5 -15 -6 0 -11 -8 -11 -17 0
-10 -7 -30 -14 -45 -11 -20 -12 -28 -3 -28 7 0 4 -5 -6 -11 -12 -7 -16 -17
-11 -31 5 -16 3 -20 -9 -15 -12 4 -14 0 -11 -19 2 -13 1 -24 -4 -24 -5 0 -9
-6 -10 -12 -2 -25 -8 -48 -15 -54 -4 -4 -7 -20 -7 -36 0 -15 -4 -28 -9 -28 -6
0 -8 -9 -6 -20 2 -11 0 -20 -4 -20 -4 0 -5 -14 -3 -31 4 -25 2 -30 -9 -24 -11
7 -12 6 -3 -6 8 -12 11 -62 4 -79 -5 -10 2 -154 14 -316 3 -39 -1 -56 -16 -75
-11 -13 -16 -18 -12 -10 5 9 3 12 -5 7 -6 -4 -9 -11 -6 -16 3 -4 -2 -13 -10
-20 -8 -7 -15 -18 -15 -25 0 -8 -4 -15 -9 -17 -6 -1 -12 -15 -15 -30 -2 -15
-8 -33 -12 -40 -4 -7 -9 -24 -10 -38 -1 -14 -4 -32 -8 -40 -3 -8 -8 -26 -10
-40 -3 -14 -5 -27 -6 -30 -1 -3 -1 -13 0 -24 1 -10 -2 -16 -7 -13 -5 4 -8 -4
-7 -16 1 -12 3 -22 4 -22 1 0 3 -10 6 -23 3 -16 0 -21 -8 -16 -7 5 -8 3 -3 -6
5 -7 9 -25 10 -39 1 -14 6 -25 12 -24 6 1 8 -9 5 -23 -2 -13 1 -31 8 -39 10
-12 10 -15 -1 -15 -10 -1 -9 -4 3 -11 9 -5 15 -16 12 -23 -3 -8 0 -24 6 -36 7
-13 7 -20 2 -16 -7 4 -10 -36 -11 -114 0 -79 4 -120 11 -120 7 0 7 -5 -1 -14
-9 -11 -9 -16 -1 -21 7 -4 10 -16 7 -26 -3 -10 -1 -22 4 -25 5 -3 7 -10 3 -15
-3 -5 0 -17 8 -26 11 -14 11 -16 -2 -8 -13 8 -13 6 -2 -8 8 -9 11 -21 7 -27
-3 -5 -1 -10 4 -10 6 0 10 -3 10 -7 -1 -5 0 -10 1 -13 1 -3 3 -19 4 -36 1 -17
7 -38 13 -45 6 -8 14 -30 19 -49 11 -49 11 -49 14 -55 3 -7 7 -22 9 -36 0 -5
5 -8 10 -5 5 4 7 -3 4 -14 -3 -11 -1 -20 3 -20 5 0 10 -14 11 -31 1 -17 6 -36
12 -43 5 -6 12 -26 16 -43 3 -18 11 -33 16 -33 6 0 7 -5 4 -10 -3 -5 -1 -10 4
-10 6 0 11 -7 11 -15 0 -8 5 -15 10 -15 6 0 10 -7 10 -15 0 -8 5 -15 10 -15 6
0 10 -7 10 -15 0 -8 7 -15 16 -15 8 0 13 -4 10 -9 -3 -4 3 -16 13 -25 19 -18
21 -31 8 -53 -5 -8 -3 -13 4 -13 8 0 9 -3 0 -14 -6 -7 -12 -25 -13 -40 -1 -14
-6 -26 -11 -26 -5 0 -7 -9 -4 -19 3 -12 -1 -22 -9 -25 -8 -3 -13 -9 -12 -13 1
-4 -7 -26 -17 -48 -10 -22 -19 -46 -21 -52 -1 -7 -12 -24 -23 -39 -11 -14 -18
-30 -15 -35 3 -5 0 -9 -6 -9 -6 0 -8 -4 -5 -10 3 -5 2 -10 -3 -10 -11 0 -53
-94 -57 -127 -1 -13 -5 -26 -8 -30 -4 -3 -2 -13 3 -23 5 -10 6 -20 3 -24 -6
-6 -6 -64 -1 -143 1 -7 5 -13 10 -13 5 0 7 -4 4 -8 -3 -5 1 -19 8 -33 7 -13
13 -27 14 -32 10 -42 15 -57 23 -57 5 0 6 -7 3 -15 -4 -8 -2 -15 3 -15 5 0 10
-6 10 -12 0 -7 10 -35 23 -63 13 -27 25 -57 26 -65 2 -8 8 -16 13 -18 6 -2 11
-12 11 -23 0 -10 4 -19 8 -19 5 0 14 -16 22 -35 7 -19 17 -32 22 -29 7 5 12
-10 9 -29 0 -4 7 -7 16 -7 9 0 14 -3 10 -6 -3 -3 8 -18 25 -32 16 -15 39 -35
49 -44 10 -10 21 -18 24 -18 2 0 15 -10 29 -22 13 -13 32 -29 43 -37 10 -8 29
-24 42 -35 14 -12 21 -15 16 -6 -5 8 3 4 16 -10 35 -35 79 -71 79 -64 0 3 11
-6 24 -20 13 -15 28 -26 35 -26 6 0 11 -4 11 -8 0 -5 11 -15 25 -22 13 -7 22
-17 19 -22 -3 -4 4 -8 14 -8 11 0 22 -7 26 -15 3 -8 11 -15 18 -15 7 0 19 -9
26 -21 7 -12 16 -18 19 -15 4 3 12 -3 20 -14 8 -11 21 -20 29 -20 8 0 12 -4 9
-10 -3 -5 1 -10 9 -10 9 0 16 -4 16 -10 0 -5 7 -10 15 -10 8 0 15 -4 15 -9 0
-5 14 -14 30 -20 17 -5 30 -15 30 -22 0 -6 6 -9 14 -6 8 3 19 0 25 -7 7 -8 25
-16 42 -20 17 -3 28 -10 25 -14 -3 -5 5 -8 17 -7 12 1 28 -2 34 -7 7 -6 20 -8
28 -4 9 3 18 -1 22 -10 5 -13 7 -13 14 -2 5 7 9 8 9 2 0 -6 15 -10 35 -9 19 2
35 -1 35 -5 0 -5 9 -6 20 -3 11 3 28 2 37 -2 28 -12 137 -12 152 0 12 8 13 7
6 -5 -7 -13 -6 -13 7 -2 8 7 24 9 33 5 14 -5 16 -3 10 8 -6 11 -5 11 4 3 8 -7
25 -9 44 -5 18 4 49 6 70 5 29 -1 37 2 33 13 -4 9 -2 11 7 6 6 -4 20 -6 31 -4
13 2 16 -1 10 -11 -6 -10 -4 -10 9 1 14 11 66 14 242 15 124 1 225 -3 225 -7
0 -5 5 -5 11 -1 16 10 189 11 189 1 0 -5 5 -5 11 -1 14 8 103 9 116 1 5 -3 15
-2 22 2 7 4 23 6 37 3 13 -2 31 1 39 8 8 7 15 8 15 3 0 -5 36 -9 80 -9 44 1
80 -3 80 -7 0 -5 5 -5 11 -2 15 10 149 11 149 2 0 -5 5 -5 11 -2 15 10 229 11
229 2 0 -5 5 -5 11 -1 14 8 114 8 128 0 5 -4 12 -2 15 2 3 5 18 8 33 6 15 -1
33 2 39 7 8 7 14 6 19 0 3 -7 46 -10 103 -10 53 1 102 0 107 -1 6 -1 12 -2 15
-1 3 1 66 3 140 4 74 2 144 7 154 12 15 7 17 5 11 -6 -8 -12 -6 -12 8 0 9 7
17 10 17 6 0 -4 6 -2 13 4 8 6 17 8 20 4 4 -3 7 -1 7 7 0 10 3 10 15 0 11 -9
15 -10 15 -1 0 8 6 7 16 -3 8 -9 19 -14 24 -11 5 3 10 1 12 -4 1 -5 19 -11 38
-13 19 -1 38 -7 42 -13 5 -6 8 -5 8 4 0 9 4 10 13 4 14 -12 166 -11 185 0 7 5
12 3 12 -4 0 -8 4 -8 13 -2 6 5 26 9 42 9 17 -1 36 5 43 12 8 7 18 10 23 7 5
-4 9 -1 9 5 0 6 5 8 10 5 6 -3 10 -2 10 2 0 5 9 14 21 21 12 8 18 9 15 3 -4
-7 -1 -8 8 -5 9 3 13 10 10 15 -7 13 -3 12 38 -10 21 -10 34 -22 30 -26 -4 -5
1 -5 10 -2 10 3 21 1 25 -6 8 -11 18 -14 68 -19 11 -1 23 -7 27 -13 5 -6 8 -5
8 4 0 9 4 10 13 4 16 -13 221 -10 239 3 7 6 23 9 36 8 12 0 22 3 22 7 0 5 8 9
18 9 9 0 26 7 36 15 10 8 23 12 29 8 6 -3 7 -1 3 5 -4 7 -1 12 8 12 9 0 16 7
16 17 0 9 3 14 6 10 4 -3 13 0 21 8 13 13 19 11 51 -13 20 -15 39 -30 40 -34
2 -5 10 -8 18 -8 8 0 14 -5 14 -11 0 -5 4 -7 10 -4 6 3 10 2 10 -4 0 -6 7 -8
15 -5 8 4 15 1 15 -5 0 -6 7 -8 15 -5 8 4 15 2 15 -3 0 -5 14 -8 30 -7 17 1
30 -1 30 -4 0 -4 47 -7 105 -7 58 0 105 4 105 9 0 5 6 4 13 -2 8 -7 18 -7 27
-2 8 5 18 6 22 4 4 -3 8 0 8 6 0 7 6 10 13 7 6 -2 21 -1 32 3 11 4 26 3 33 -2
6 -6 12 -7 12 -3 0 5 10 0 22 -11 14 -12 19 -14 13 -4 -6 12 -5 13 6 2 7 -6
25 -12 39 -12 15 0 30 -3 34 -7 4 -4 24 -8 44 -10 20 -1 68 -5 105 -8 53 -5
67 -3 61 6 -5 8 -3 10 7 4 18 -12 49 -14 43 -3 -3 5 11 7 30 5 20 -2 36 -1 36
2 0 6 32 12 78 14 12 1 22 4 22 8 0 3 20 12 45 19 25 7 45 16 45 20 0 11 49 9
56 -1 3 -5 16 -9 30 -9 17 0 23 -4 18 -12 -5 -8 0 -9 14 -6 12 4 22 3 22 -2 0
-4 16 -7 35 -5 19 1 32 -1 30 -4 -7 -12 759 -8 767 3 5 7 8 6 8 -3 0 -11 3
-11 15 -1 12 10 15 10 15 -1 0 -9 3 -10 8 -3 4 6 14 11 22 11 21 0 150 63 150
74 0 5 7 9 15 9 8 0 15 6 15 13 0 8 11 24 25 37 13 12 24 25 23 29 -1 15 15
50 22 46 4 -2 7 6 6 18 -1 12 4 33 10 46 7 13 10 30 7 39 -5 11 -3 13 7 7 9
-6 11 -4 5 4 -11 18 -14 122 -4 115 5 -3 4 7 -1 21 -13 35 -13 48 2 39 7 -4 3
6 -8 22 -11 16 -19 39 -18 51 1 12 -2 20 -6 18 -10 -6 -22 24 -14 36 3 5 0 9
-5 9 -6 0 -11 6 -11 14 0 8 -6 17 -12 19 -9 4 -9 8 -3 14 6 4 11 13 12 20 2 9
3 162 2 266 0 9 -5 15 -10 11 -5 -3 -1 9 9 28 35 64 62 198 40 198 -5 0 -6 5
-3 10 4 6 12 7 18 3 7 -3 3 4 -8 17 -11 13 -15 20 -9 17 9 -5 10 9 7 51 -3 31
-6 69 -7 84 0 16 -4 28 -8 28 -5 0 -8 8 -8 18 0 9 -11 30 -25 46 -13 16 -22
33 -19 37 3 5 2 9 -3 9 -4 0 -28 18 -53 40 -25 22 -51 40 -57 40 -7 0 -13 5
-13 11 0 5 -5 7 -11 4 -5 -4 -20 1 -31 12 -14 12 -19 13 -13 3 5 -9 0 -8 -13
4 -17 14 -22 16 -22 5 0 -11 -2 -11 -10 1 -8 12 -10 12 -10 1 0 -9 -4 -10 -12
-4 -7 5 -39 9 -70 9 -33 -1 -58 3 -58 9 0 7 -3 7 -8 0 -4 -6 -54 -10 -112 -10
-89 0 -108 3 -127 19 -25 21 -31 41 -10 31 6 -4 0 5 -15 18 -21 20 -24 28 -14
36 7 6 12 27 10 48 -1 21 3 44 8 51 6 7 7 12 1 12 -5 0 -8 30 -7 68 1 37 -3
73 -8 80 -7 8 -7 12 1 12 8 0 9 5 2 19 -8 14 -7 20 4 25 8 3 15 14 15 25 0 11
4 23 10 26 6 3 10 17 10 30 0 13 4 26 9 29 12 8 10 256 -2 256 -5 0 -7 9 -4
21 3 12 0 22 -9 26 -8 3 -13 12 -10 19 3 7 0 19 -7 26 -29 30 -44 78 -37 123
4 24 3 42 -2 39 -13 -9 -9 6 7 22 8 9 15 25 15 36 0 12 3 18 7 15 8 -9 48 54
44 72 -1 7 2 10 8 6 6 -3 11 1 11 9 0 9 5 16 10 16 6 0 10 4 10 10 0 9 39 72
60 97 5 7 10 16 10 21 0 5 11 21 25 36 27 30 32 41 13 31 -7 -4 -4 1 6 9 11 9
21 24 22 33 2 9 10 20 18 25 9 5 16 15 16 23 0 8 8 18 18 24 9 5 16 12 14 15
-1 4 5 22 13 42 8 20 15 42 15 49 0 6 3 15 7 19 12 12 10 150 -3 169 -6 10
-10 27 -7 38 3 10 0 19 -6 19 -6 0 -11 7 -11 16 0 8 -6 21 -12 28 -7 7 -24 27
-38 44 -14 18 -31 32 -38 32 -7 0 -10 5 -7 10 11 17 -124 73 -177 74 -27 0
-48 4 -48 8 0 9 -51 5 -68 -6 -7 -4 -12 -3 -12 1 0 5 -18 9 -39 9 -22 0 -38
-2 -36 -6 2 -3 -21 -5 -51 -4 -30 0 -54 -3 -54 -8 0 -5 -4 -7 -9 -3 -5 3 -12
1 -16 -5 -4 -6 -11 -8 -16 -5 -5 4 -9 1 -9 -5 0 -6 -8 -10 -17 -8 -10 2 -17
-2 -16 -9 2 -7 -4 -10 -12 -7 -8 4 -15 1 -15 -5 0 -6 -4 -11 -10 -11 -5 0 -20
-10 -32 -22 -14 -14 -23 -18 -26 -10 -2 7 -8 10 -13 6 -5 -3 -9 0 -9 6 0 6 -4
8 -10 5 -6 -3 -10 1 -10 10 0 9 -4 13 -10 10 -5 -3 -10 -1 -10 4 0 6 -7 11
-16 11 -8 0 -13 4 -9 9 3 6 -4 8 -15 6 -11 -2 -20 0 -20 5 0 4 -7 11 -16 14
-9 4 -13 2 -8 -5 3 -6 -4 -4 -17 4 -13 8 -41 14 -61 13 -21 -1 -38 1 -38 4 0
8 -73 6 -87 -3 -6 -4 -14 -3 -17 1 -3 5 -18 7 -33 5 -49 -7 -133 -9 -133 -3 0
3 -9 6 -20 6 -11 0 -20 -5 -20 -11 0 -5 -4 -4 -9 3 -11 17 -21 17 -32 0 -7
-10 -9 -10 -9 0 0 8 -9 10 -27 6 -16 -3 -52 -6 -80 -7 -29 -1 -53 -4 -53 -8 0
-8 -50 -23 -69 -20 -7 1 -10 -2 -6 -8 3 -6 -1 -11 -9 -11 -9 0 -16 -5 -16 -12
0 -6 -3 -8 -7 -5 -3 4 -11 -1 -18 -10 -11 -15 -14 -15 -35 5 -13 12 -26 19
-30 17 -5 -3 -10 2 -14 10 -3 8 -12 12 -21 9 -8 -3 -15 -2 -15 3 0 14 -58 30
-102 28 -21 0 -38 2 -38 5 0 3 -11 6 -25 6 -14 1 -25 -3 -25 -10 0 -7 -3 -6
-9 2 -11 17 -21 17 -32 0 -5 -7 -9 -8 -9 -2 0 6 -12 10 -27 7 -66 -8 -113 -10
-113 -4 0 4 -22 7 -50 7 -27 0 -50 -4 -50 -8 0 -11 -34 -2 -38 10 -2 8 -9 7
-19 -4 -13 -13 -17 -13 -24 -2 -5 7 -9 8 -9 2 0 -6 -15 -10 -32 -9 -38 2 -90
-13 -100 -29 -4 -6 -8 -7 -8 -3 0 4 -8 3 -18 -2 -13 -7 -27 -6 -46 4 -14 8
-24 10 -21 6 2 -5 -11 -1 -31 9 -21 11 -50 17 -74 15 -22 -2 -40 1 -40 6 0 10
-50 7 -68 -5 -7 -4 -12 -3 -12 1 0 5 -18 9 -40 9 -22 -1 -40 -4 -40 -7 0 -3
-22 -5 -50 -4 -27 1 -50 -2 -50 -5 0 -11 -77 -33 -88 -26 -6 3 -14 1 -18 -5
-3 -6 -9 -7 -13 -3 -13 18 -67 41 -91 39 -30 -2 -53 24 -38 42 6 8 7 13 1 13
-5 0 -10 7 -10 15 0 8 5 15 11 15 6 0 4 5 -4 10 -12 8 -12 10 -1 10 11 0 11 3
1 15 -10 12 -10 15 0 15 9 0 9 4 -1 17 -12 15 -12 16 1 8 13 -8 13 -7 1 8 -10
13 -10 17 -1 17 9 0 9 4 -1 17 -12 14 -12 15 -1 9 11 -7 12 -4 3 13 -7 12 -10
25 -8 29 3 4 0 18 -5 32 -6 14 -12 36 -14 50 -5 35 -12 74 -14 80 -1 3 -2 8
-1 13 0 4 -3 7 -8 7 -5 0 -9 10 -9 23 -2 30 -6 50 -15 65 -5 6 -6 16 -2 21 3
5 1 12 -5 16 -6 4 -8 11 -5 16 4 5 2 9 -4 9 -6 0 -8 7 -5 15 4 8 2 15 -2 15
-8 0 -13 30 -17 98 0 12 -4 22 -7 22 -6 0 -8 8 -12 50 -1 11 -6 20 -10 20 -4
0 -8 9 -8 20 0 11 -4 20 -9 20 -6 0 -8 9 -6 20 2 12 -2 20 -10 20 -8 0 -12 6
-9 14 3 8 1 17 -5 20 -6 4 -8 13 -4 21 3 9 -1 15 -11 15 -8 0 -18 11 -22 25
-3 14 -10 25 -14 25 -9 0 -7 26 3 36 4 4 2 13 -4 21 -9 10 -8 13 1 13 10 0 10
3 1 14 -9 11 -9 15 1 19 10 4 10 6 1 6 -7 1 -13 9 -13 20 0 10 -7 35 -15 55
-8 20 -13 36 -10 36 3 0 -3 10 -15 22 -11 12 -20 27 -20 34 0 6 -7 17 -15 24
-8 6 -14 15 -13 18 2 23 -4 43 -19 58 -10 10 -18 20 -18 24 0 9 -53 70 -61 70
-4 0 -14 8 -23 18 -9 10 -31 24 -48 31 -18 8 -33 17 -33 22 0 5 -7 6 -15 2 -9
-3 -15 -2 -14 3 4 15 -13 44 -21 39 -5 -3 -17 6 -28 20 -11 14 -27 25 -37 25
-10 0 -13 5 -9 12 4 7 3 8 -5 4 -6 -4 -18 -2 -26 4 -8 6 -18 9 -24 6 -5 -3
-11 -2 -13 4 -2 8 -44 17 -105 22 -7 1 -13 7 -13 15 0 7 -4 13 -8 13 -5 0 -15
11 -22 25 -7 14 -15 23 -18 20 -3 -2 -16 8 -31 23 -14 15 -33 28 -41 30 -8 2
-17 7 -20 10 -5 6 -19 11 -45 16 -5 1 -15 4 -20 8 -15 9 -99 13 -112 5 -6 -4
-15 -3 -18 3 -5 8 -11 8 -20 0 -9 -8 -17 -7 -28 4 -8 8 -17 13 -19 10 -3 -2
-11 2 -17 10 -7 8 -19 12 -27 9 -8 -3 -14 -1 -14 4 0 12 -50 37 -67 34 -7 -1
-13 3 -13 9 0 5 -3 9 -7 9 -17 -3 -73 14 -73 22 0 5 -225 9 -501 9 -275 0
-498 -3 -495 -8 3 -5 -1 -9 -9 -9 -8 0 -11 5 -8 11 4 6 0 5 -9 -2 -11 -9 -18
-10 -23 -2 -4 7 -12 7 -26 0 -13 -8 -19 -7 -19 0 0 7 -7 7 -21 -1 -16 -8 -20
-8 -14 0 9 15 -321 14 -349 -1 -13 -7 -16 -7 -12 1 4 6 5 11 2 11 -3 0 -7 -4
-10 -8z"/>
</g>
</svg>
